<svg width="78" height="76" viewBox="0 0 78 76" fill="none" xmlns="http://www.w3.org/2000/svg">
<path fill-rule="evenodd" clip-rule="evenodd" d="M39 0C17.4525 0 0 17.4351 0 38.9612C0 56.2015 11.1637 70.7632 26.6662 75.9256C28.6162 76.2665 29.3475 75.0976 29.3475 74.0749C29.3475 73.1496 29.2988 70.0814 29.2988 66.8184C19.5 68.6204 16.965 64.432 16.185 62.2405C15.7462 61.1203 13.845 57.6625 12.1875 56.7372C10.8225 56.0067 8.8725 54.2047 12.1388 54.156C15.21 54.1073 17.4037 56.9807 18.135 58.1495C21.645 64.0424 27.2513 62.3866 29.4938 61.3638C29.835 58.8314 30.8587 57.1268 31.98 56.1528C23.3025 55.1787 14.235 51.8184 14.235 36.9157C14.235 32.6787 15.7463 29.1722 18.2325 26.4449C17.8425 25.4709 16.4775 21.4773 18.6225 16.1202C18.6225 16.1202 21.8888 15.0975 29.3475 20.1137C32.4675 19.2371 35.7825 18.7988 39.0975 18.7988C42.4125 18.7988 45.7275 19.2371 48.8475 20.1137C56.3063 15.0488 59.5725 16.1202 59.5725 16.1202C61.7175 21.4773 60.3525 25.4709 59.9625 26.4449C62.4487 29.1722 63.96 32.63 63.96 36.9157C63.96 51.8671 54.8438 55.1787 46.1663 56.1528C47.58 57.3703 48.7988 59.708 48.7988 63.3606C48.7988 68.5717 48.75 72.76 48.75 74.0749C48.75 75.0976 49.4813 76.3152 51.4313 75.9256C59.1735 73.3145 65.9011 68.3436 70.6672 61.7126C75.4333 55.0817 77.9979 47.1245 78 38.9612C78 17.4351 60.5475 0 39 0Z" fill="black"/>
</svg>
